<svg width="238" height="301" viewBox="0 0 238 301" fill="none" xmlns="http://www.w3.org/2000/svg">
<path d="M0 6.78271C0 3.469 2.68629 0.782715 6 0.782715H232C235.314 0.782715 238 3.46901 238 6.78271V294.87C238 298.183 235.314 300.87 232 300.87H6C2.68629 300.87 0 298.183 0 294.87V6.78271Z" fill="#C2E6DA"/>
<path d="M55.5837 92.6506H62.9494V23.2031C50.7435 23.2031 48.6389 31.621 48.6389 38.3553C48.6389 45.0896 53.6896 50.1403 55.5837 53.297C57.4778 56.4537 55.5837 55.4015 54.9523 54.9806C54.3209 54.5597 46.1136 47.1941 41.0628 47.1941C36.0121 47.1941 27.5942 50.1403 27.5942 59.4C27.5942 68.6596 31.1718 72.4477 37.4852 74.973C43.7986 77.4984 53.9001 71.8163 57.0568 70.1328C60.2135 68.4492 59.3717 71.3954 58.7404 73.2895C58.109 75.1835 54.1106 81.7073 51.5853 86.5476C49.0599 91.3879 53.6897 92.6506 55.5837 92.6506Z" fill="#223A5F"/>
<path d="M70.3147 92.6506H62.9491V23.2031C75.1549 23.2031 77.2595 31.621 77.2595 38.3553C77.2595 45.0896 72.2088 50.1403 70.3147 53.297C68.4206 56.4537 70.3147 55.4015 70.9461 54.9806C71.5775 54.5597 79.7849 47.1941 84.8356 47.1941C89.8863 47.1941 98.3042 50.1403 98.3042 59.4C98.3042 68.6596 94.7266 72.4477 88.4132 74.973C82.0998 77.4984 71.9983 71.8163 68.8416 70.1328C65.6849 68.4492 66.5267 71.3954 67.1581 73.2895C67.7894 75.1835 71.7878 81.7073 74.3132 86.5476C76.8385 91.3879 72.2087 92.6506 70.3147 92.6506Z" fill="#223A5F"/>
<path d="M162.912 262.691L170.703 249.583C162.092 258.185 144.869 250.485 144.869 239.343C144.869 228.202 164.552 209.033 174.393 200.841C178.084 204.527 203.507 223.779 203.507 239.343C203.507 248.764 193.666 253.27 187.925 253.27C183.332 253.27 178.904 250.812 177.264 249.583C179.451 252.86 184.235 260.069 185.875 262.691C187.515 265.312 185.191 266.241 183.824 266.377H165.372C162.42 266.377 162.502 263.919 162.912 262.691Z" fill="#223A5F"/>
<path d="M45.0096 207.74C50.1425 207.74 58.3002 213.699 60.1333 215.073L64.2176 211.863C73.8418 202.243 93.1306 210.855 93.1306 223.316C93.1306 235.776 71.1324 257.215 60.1333 266.377C56.0087 262.254 27.5944 240.723 27.5944 223.316C27.5944 212.779 38.5935 207.74 45.0096 207.74Z" fill="#FF5E4E"/>
<path d="M169.15 23.6527C171.539 20.7362 175.995 20.7202 178.405 23.6195L202.493 52.5949C204.308 54.7781 204.344 57.9345 202.58 60.1589L178.493 90.5292C176.08 93.5717 171.456 93.5553 169.064 90.4957L145.326 60.1243C143.597 57.9127 143.633 54.7982 145.412 52.6269L169.15 23.6527Z" fill="#FF5E4E"/>
</svg>
