<svg width="254" height="254" viewBox="0 0 254 254" fill="none" xmlns="http://www.w3.org/2000/svg">
<mask id="mask0_38_338" style="mask-type:alpha" maskUnits="userSpaceOnUse" x="0" y="0" width="254" height="254">
<rect width="254" height="254" fill="#47A286"/>
</mask>
<g mask="url(#mask0_38_338)">
<path d="M33.8679 169.507C33.9332 175.246 34.3415 180.976 35.0908 186.666C43.627 196.638 65.0701 218.823 93.7636 229.355C96.4669 226.857 98.9142 224.095 101.069 221.111C74.0008 205.53 47.0746 182.319 33.8916 169.523L33.8679 169.507Z" fill="#EDEEEF"/>
<path d="M22.9649 145.95L13.1033 100.539H43.8716L51.3664 141.611" fill="#5EB398"/>
<path d="M13.1033 100.539H43.8716L48.8182 127.646" stroke="black" stroke-width="2" stroke-miterlimit="10"/>
<path d="M166.44 228.788L97.9131 237.04C97.9131 237.04 -6.84901 308.083 34.562 401.564C75.973 495.044 106.749 527.004 106.749 527.004V550.672L153.462 528.187L126.709 380.262L153.462 347.127L166.44 228.788Z" fill="#C2E5DA"/>
<path d="M118.165 235.099L227.337 228.772V347.127V639.032H141.533L150.606 622.772L118.165 235.099Z" fill="#5EB398" fill-opacity="0.3"/>
<path d="M150.606 622.772L118.165 235.099" stroke="#223A5F" stroke-width="2" stroke-miterlimit="10"/>
<path d="M97.9133 145.65V237.04L227.377 268.857V167.085C227.376 149.549 221.496 132.519 210.677 118.718C199.857 104.916 184.724 95.1408 167.694 90.9534C159.4 88.9153 150.751 88.7898 142.401 90.5864C134.05 92.383 126.218 96.0546 119.496 101.324C112.774 106.593 107.338 113.321 103.599 121.001C99.8594 128.68 97.9154 137.109 97.9133 145.65Z" fill="#EDEEEF"/>
<path d="M126.709 41.0929V55.6724C126.704 61.1512 128.539 66.4731 131.92 70.7848C135.3 75.0965 140.03 78.1482 145.352 79.4508L168.554 85.1547V28.1466L149.265 23.413C146.583 22.7537 143.787 22.713 141.087 23.2941C138.387 23.8751 135.855 25.0626 133.682 26.7667C131.509 28.4708 129.752 30.6469 128.544 33.1303C127.336 35.6136 126.709 38.3392 126.709 41.1008V41.0929Z" fill="#EDEEEF"/>
<path d="M126.709 55.6724C126.704 61.1512 128.539 66.4731 131.92 70.7848C135.3 75.0964 140.03 78.1482 145.352 79.4508L147.632 80.0109" stroke="black" stroke-width="2" stroke-miterlimit="10"/>
<path d="M150.346 52.7769C150.964 52.7769 151.466 52.2754 151.466 51.6567C151.466 51.0379 150.964 50.5364 150.346 50.5364C149.727 50.5364 149.225 51.0379 149.225 51.6567C149.225 52.2754 149.727 52.7769 150.346 52.7769Z" fill="black"/>
<path d="M133.163 52.7769C133.781 52.7769 134.283 52.2754 134.283 51.6567C134.283 51.0379 133.781 50.5364 133.163 50.5364C132.544 50.5364 132.042 51.0379 132.042 51.6567C132.042 52.2754 132.544 52.7769 133.163 52.7769Z" fill="black"/>
<path d="M138.204 58.3309V41.0928H129.565" stroke="black" stroke-width="2" stroke-miterlimit="10"/>
<path d="M152.46 41.0928H143.821" stroke="black" stroke-width="2" stroke-miterlimit="10"/>
<path d="M165.801 49.929V55.917C166.569 55.917 167.33 55.7656 168.04 55.4713C168.75 55.177 169.394 54.7457 169.937 54.202C170.48 53.6583 170.911 53.0129 171.204 52.3027C171.497 51.5926 171.648 50.8315 171.647 50.0632C171.647 49.8817 171.647 49.7081 171.647 49.5346C171.284 45.8976 165.801 46.2763 165.801 49.929Z" fill="#EDEEEF"/>
<path d="M165.801 55.9169C166.569 55.9169 167.33 55.7654 168.04 55.4711C168.75 55.1768 169.394 54.7455 169.937 54.2018C170.48 53.6581 170.911 53.0127 171.204 52.3026C171.497 51.5924 171.648 50.8314 171.647 50.063" stroke="#223A5F" stroke-width="2" stroke-miterlimit="10"/>
<path d="M142.93 60.3506C143.657 61.0742 144.641 61.4804 145.667 61.4804C146.693 61.4804 147.678 61.0742 148.405 60.3506" stroke="#FF6498" stroke-width="2" stroke-miterlimit="10"/>
<path d="M138.204 58.3469L141.983 59.2779" stroke="#223A5F" stroke-width="2" stroke-miterlimit="10" stroke-linecap="round"/>
<path d="M126.709 46.994C126.709 46.994 145.462 46.0236 150.622 31.8229C150.679 31.6775 150.781 31.5541 150.912 31.4705C151.044 31.3869 151.199 31.3476 151.355 31.3581C151.511 31.3687 151.659 31.4286 151.778 31.5292C151.898 31.6298 151.982 31.7659 152.018 31.9176C153.178 36.9588 156.657 46.4733 166.44 48.0591" stroke="#223A5F" stroke-width="2" stroke-miterlimit="10"/>
<path d="M126.709 51.6566C126.709 51.6566 116.453 44.8324 122.402 32.3436C128.35 19.8548 150.937 13.1331 163.426 22.8764C163.426 22.8764 188.743 19.839 186.179 55.6802C183.615 91.5213 187.165 98.8189 177.501 100.397C167.836 101.975 142.882 91.119 149.233 81.849C155.584 72.5791 168.554 55.2226 168.554 55.2226" stroke="#223A5F" stroke-width="2" stroke-miterlimit="10"/>
<path d="M124.871 50.063C124.871 50.063 113.463 77.6756 116.879 83.7582C120.295 89.8409 137.171 86.7798 137.171 86.7798" stroke="#223A5F" stroke-width="2" stroke-miterlimit="10"/>
<path d="M218.62 161.989C218.62 161.989 196.869 220.298 158.132 235.099C119.396 249.899 37.2209 174.698 26.6492 161.989C18.0183 151.63 15.0756 130.96 26.6492 131.488C38.2228 132.017 48.7393 139.898 48.7393 139.898C48.7393 139.898 48.7392 129.358 52.9442 131.473C54.6247 132.317 56.313 134.344 57.7252 136.467C60.9455 141.224 65.395 145.019 70.6005 147.449L137.171 179.085L162.606 126.226" stroke="#223A5F" stroke-width="2" stroke-miterlimit="10"/>
<path d="M158.132 235.099C143.324 240.756 122.157 233.253 101.069 221.111C109.384 235.935 128.129 246.278 149.928 246.278C179.449 246.278 203.378 227.344 203.378 203.936C203.454 200.773 202.937 197.624 201.855 194.65C191.607 210.642 176.854 227.943 158.132 235.099Z" fill="#223A5F"/>
<path d="M116.241 104.042C116.241 104.042 88.9751 129.911 83.1843 155.156" stroke="black" stroke-width="2" stroke-miterlimit="10"/>
<path d="M33.8681 169.507C33.8681 169.507 33.584 219.32 57.1494 235.099C80.7148 250.877 101.069 221.111 101.069 221.111" stroke="black" stroke-width="2" stroke-miterlimit="10"/>
<path d="M68.9835 145.95C68.9835 145.95 68.1946 116.499 59.7846 110.708C51.3745 104.917 44.7949 105.596 45.0631 107.079C45.3313 108.562 50.8381 113.864 54.7827 116.231" stroke="black" stroke-width="2" stroke-miterlimit="10"/>
<mask id="mask1_38_338" style="mask-type:alpha" maskUnits="userSpaceOnUse" x="13" y="18" width="200" height="199">
<rect x="13.4976" y="18.1428" width="198.811" height="198.811" fill="#47A286"/>
</mask>
<g mask="url(#mask1_38_338)">
</g>
</g>
</svg>
