<svg width="358" height="799" viewBox="0 0 358 799" fill="none" xmlns="http://www.w3.org/2000/svg">
<path d="M178.998 294L183.172 478.881L10.0094 493.895L0 607L24.0225 582.978C24.0225 582.978 283.266 637.028 343.322 582.978C403.378 528.928 259.734 327.821 259.734 327.821" fill="white"/>
<path d="M180.946 377L183.241 478.655L75.166 488.031C71.0179 508.543 68.9524 529.422 69.0008 550.349C68.994 564.136 69.8746 577.908 71.6373 591.581C119.324 599.352 194.078 609.179 254.987 606.572C258.345 588.02 260.023 569.203 260 550.349C259.92 463.534 225.816 391.409 180.946 377Z" fill="#3C8870"/>
<path d="M233.527 293.559C233.527 293.559 253.734 624.003 196.666 780.45L208.586 798H107.089C107.089 798 96 377.709 96 287L233.527 293.559Z" fill="white"/>
<path d="M233.47 294C233.47 294 254.01 624.155 196 780.465L208.117 798" stroke="black" stroke-width="2" stroke-miterlimit="10"/>
<path d="M200 38.3399V81.0143L146 94V21.9857L200 9V38.3399Z" fill="#EDEEEF"/>
<path d="M169.5 53C170.328 53 171 52.3284 171 51.5C171 50.6716 170.328 50 169.5 50C168.672 50 168 50.6716 168 51.5C168 52.3284 168.672 53 169.5 53Z" fill="black"/>
<path d="M191.5 53C192.328 53 193 52.3284 193 51.5C193 50.6716 192.328 50 191.5 50C190.672 50 190 50.6716 190 51.5C190 52.3284 190.672 53 191.5 53Z" fill="black"/>
<path d="M185 60V38H196" stroke="black" stroke-width="2" stroke-miterlimit="10"/>
<path d="M167 38H178" stroke="black" stroke-width="2" stroke-miterlimit="10"/>
<path d="M150 49.6211V57C147.877 56.9974 145.842 56.2363 144.342 54.8837C142.842 53.5312 142 51.6979 142 49.7864C142 49.5628 142 49.3489 142 49.135C142.475 44.6533 150 45.1199 150 49.6211V49.6211Z" fill="#EDEEEF"/>
<path d="M149.904 57.2796C147.934 57.2769 146.045 56.4923 144.652 55.0981C143.26 53.7038 142.478 51.8139 142.478 49.8435" stroke="black" stroke-width="2" stroke-miterlimit="10"/>
<path d="M180.159 65.7478C178.166 65.7478 176.254 64.9559 174.845 63.5464C173.435 62.1368 172.643 60.225 172.643 58.2316" stroke="#FF6498" stroke-width="2" stroke-miterlimit="10"/>
<path d="M199.561 81.3616L146.406 94.4198" stroke="black" stroke-width="2" stroke-miterlimit="10"/>
<path d="M184.959 60.3662L180.159 61.5487" stroke="black" stroke-width="2" stroke-miterlimit="10" stroke-linecap="round"/>
<path d="M96 171.528V287.592L260 328V198.751C259.999 176.48 252.55 154.852 238.843 137.324C225.137 119.797 205.965 107.382 184.391 102.064C173.884 99.4776 162.927 99.3197 152.349 101.603C141.771 103.886 131.85 108.55 123.335 115.243C114.82 121.935 107.934 130.481 103.199 140.234C98.4631 149.987 96.0015 160.691 96 171.538V171.528Z" fill="#C2E6DA"/>
<path d="M149.903 45.945C149.903 45.945 159.925 39.9821 159.674 29.3892L177.834 34.861V27.7156L195.933 34.861V27.7156L203.439 30.7221" stroke="black" stroke-width="2" stroke-miterlimit="10"/>
<path d="M199.561 38.4488C199.561 38.4488 211.788 31.7242 208.781 12.6831C208.781 12.6831 183.397 -2.00866 152.66 12.6831L155.336 2C155.336 2 141.546 7.67226 143.981 15.6896L134.962 16.361L142.478 21.7026C142.478 21.7026 131.374 34.0994 146.196 45.945" stroke="black" stroke-width="2" stroke-miterlimit="10"/>
<path d="M134.962 107.358C134.962 107.358 35.0757 161.344 27.0584 245.526C19.041 329.708 219.033 285.613 236.792 278.598C254.55 271.582 251.543 257.552 251.543 257.552C251.543 257.552 281.608 245.526 278.602 244.524C275.595 243.522 110.238 231.496 110.238 231.496L159.344 186.398" stroke="black" stroke-width="2" stroke-miterlimit="10"/>
<path d="M218.812 117.78C218.812 117.78 260.072 140.529 294.817 205.971C294.817 205.971 291.299 106.466 322.697 99.651C354.095 92.8363 358.775 93.7683 352.762 99.651C346.749 105.534 337.399 107.328 337.399 107.328C337.399 107.328 350.758 128.904 331.386 132.913C331.386 132.913 399.854 346.855 260.052 287.326" stroke="black" stroke-width="2" stroke-miterlimit="10"/>
</svg>
