<svg width="252" height="252" viewBox="0 0 252 252" fill="none" xmlns="http://www.w3.org/2000/svg">
<mask id="mask0_38_1363" style="mask-type:alpha" maskUnits="userSpaceOnUse" x="0" y="0" width="252" height="252">
<rect width="252" height="252" fill="#47A286"/>
</mask>
<g mask="url(#mask0_38_1363)">
<path d="M91.476 208.524L86.618 475.687L77.3301 491.327H142.328L157.793 170.372" fill="#EDEEEF"/>
<path d="M106.207 182.734L190.383 184.211L189.612 268.32V491.327H124.066L130.991 478.905L106.207 182.734Z" fill="#EDEEEF"/>
<path d="M158.131 34.5188V60.3273L126.163 68.1808V24.6281L158.131 16.7747V34.5188Z" fill="#EDEEEF"/>
<path d="M140.074 43.4449C140.546 43.4449 140.929 43.0617 140.929 42.589C140.929 42.1163 140.546 41.7332 140.074 41.7332C139.601 41.7332 139.218 42.1163 139.218 42.589C139.218 43.0617 139.601 43.4449 140.074 43.4449Z" fill="black"/>
<path d="M153.201 43.4449C153.673 43.4449 154.056 43.0617 154.056 42.589C154.056 42.1163 153.673 41.7332 153.201 41.7332C152.728 41.7332 152.345 42.1163 152.345 42.589C152.345 43.0617 152.728 43.4449 153.201 43.4449Z" fill="black"/>
<path d="M149.35 47.688V34.5186H155.949" stroke="#223A5F" stroke-width="2" stroke-miterlimit="10"/>
<path d="M138.465 34.5186H145.065" stroke="#223A5F" stroke-width="2" stroke-miterlimit="10"/>
<path d="M128.26 41.2691V45.8438C127.075 45.8422 125.939 45.3703 125.102 44.5318C124.264 43.6933 123.794 42.5567 123.794 41.3716C123.794 41.233 123.794 41.1004 123.794 40.9678C124.071 38.1892 128.26 38.4785 128.26 41.2691Z" fill="#EDEEEF"/>
<path d="M128.26 45.8438C127.075 45.8422 125.939 45.3703 125.102 44.5318C124.264 43.6932 123.794 42.5566 123.794 41.3716" stroke="#223A5F" stroke-width="2" stroke-miterlimit="10"/>
<path d="M146.463 50.9367C145.264 50.9367 144.114 50.4604 143.266 49.6127C142.419 48.7649 141.942 47.6151 141.942 46.4163" stroke="#FF5E4E" stroke-width="2" stroke-miterlimit="10"/>
<path d="M158.137 60.3271L126.163 68.1806" stroke="#223A5F" stroke-width="2" stroke-miterlimit="10"/>
<path d="M149.35 47.7002L146.463 48.4114" stroke="#223A5F" stroke-width="2" stroke-miterlimit="10" stroke-linecap="round"/>
<path d="M128.261 39.6177C128.261 39.6177 132.588 35.8507 133.119 31.8606C133.119 31.8606 149.091 32.2343 150.598 27.5632C151.839 28.2193 153.222 28.5622 154.627 28.5622C156.031 28.5622 157.414 28.2193 158.656 27.5632" stroke="#223A5F" stroke-width="2" stroke-miterlimit="10"/>
<path d="M158.138 32.7648C158.138 32.7648 164.388 27.1354 161.676 20.3065C158.963 13.4777 149.356 14.3818 149.356 14.3818C149.356 14.3818 141.948 10.3616 135.059 15.985C135.059 15.985 122.101 14.882 120.498 26.7376C120.498 26.7376 109.745 38.3882 126.169 52.5521" stroke="#223A5F" stroke-width="2" stroke-miterlimit="10"/>
<path d="M190.383 114.397V184.217L91.4941 208.525V130.773C91.4949 117.376 95.9871 104.366 104.253 93.8218C112.518 83.2781 124.08 75.8098 137.09 72.6108C143.427 71.0536 150.036 70.9578 156.415 72.3307C162.795 73.7036 168.779 76.5092 173.915 80.5353C179.05 84.5614 183.203 89.7026 186.059 95.5701C188.916 101.438 190.4 107.878 190.401 114.403L190.383 114.397Z" fill="#C2E6DA"/>
<path d="M124.066 491.327L130.991 478.905L106.207 182.734" fill="white"/>
<path d="M124.066 491.327L130.991 478.905L106.207 182.734" stroke="#223A5F" stroke-width="2" stroke-miterlimit="10"/>
<path d="M167.582 76.4138C167.582 76.4138 199.786 91.1202 215.456 151.802C231.127 212.484 165.226 243.416 165.226 243.416L146.463 221.718L176.882 170.366L155.95 139.941" fill="white"/>
<path d="M167.582 76.4138C167.582 76.4138 199.786 91.1202 215.456 151.802C231.127 212.484 165.226 243.416 165.226 243.416L146.463 221.718L176.882 170.366L155.95 139.941" stroke="#223A5F" stroke-width="2" stroke-miterlimit="10"/>
<path d="M165.225 243.416L139.809 214.015L165.225 243.416Z" fill="white"/>
<path d="M165.225 243.416L139.809 214.015" stroke="#223A5F" stroke-width="2" stroke-miterlimit="10"/>
<path d="M102.476 96.1831C102.476 96.1831 83.0563 128.489 77.3304 167.473C77.3304 167.473 65.5774 133.317 51.5159 124.879C37.4544 116.441 34.6396 119.653 34.6396 120.859C34.6396 122.064 44.2832 131.828 44.2832 131.828C44.2832 131.828 37.8521 144.16 46.2903 148.982C46.2903 148.982 33.2594 241.162 91.4944 228.71" fill="white"/>
<path d="M102.476 96.1831C102.476 96.1831 83.0563 128.489 77.3304 167.473C77.3304 167.473 65.5774 133.317 51.5159 124.879C37.4544 116.441 34.6396 119.653 34.6396 120.859C34.6396 122.064 44.2832 131.828 44.2832 131.828C44.2832 131.828 37.8521 144.16 46.2903 148.982C46.2903 148.982 33.2594 241.162 91.4944 228.71" stroke="#223A5F" stroke-width="2" stroke-miterlimit="10"/>
</g>
</svg>
