<svg width="252" height="252" viewBox="0 0 252 252" fill="none" xmlns="http://www.w3.org/2000/svg">
<mask id="mask0_38_233" style="mask-type:alpha" maskUnits="userSpaceOnUse" x="0" y="0" width="252" height="252">
<rect width="252" height="252" fill="#47A286"/>
</mask>
<g mask="url(#mask0_38_233)">
<path d="M91.476 208.524L86.618 475.687L77.3301 491.327H142.328L157.793 170.372" fill="#EDEEEF"/>
<path d="M106.207 182.734L190.383 184.211L189.611 268.32V491.327H124.065L130.99 478.905L106.207 182.734Z" fill="#EDEEEF"/>
<path d="M158.131 34.5188V60.3273L126.163 68.1808V24.6281L158.131 16.7747V34.5188Z" fill="#EDEEEF"/>
<path d="M140.073 43.4449C140.546 43.4449 140.929 43.0617 140.929 42.589C140.929 42.1163 140.546 41.7332 140.073 41.7332C139.6 41.7332 139.217 42.1163 139.217 42.589C139.217 43.0617 139.6 43.4449 140.073 43.4449Z" fill="black"/>
<path d="M153.201 43.4449C153.673 43.4449 154.056 43.0617 154.056 42.589C154.056 42.1163 153.673 41.7332 153.201 41.7332C152.728 41.7332 152.345 42.1163 152.345 42.589C152.345 43.0617 152.728 43.4449 153.201 43.4449Z" fill="black"/>
<path d="M149.349 47.688V34.5186H155.949" stroke="black" stroke-width="2" stroke-miterlimit="10"/>
<path d="M138.464 34.5186H145.064" stroke="black" stroke-width="2" stroke-miterlimit="10"/>
<path d="M128.26 41.2691V45.8438C127.075 45.8422 125.939 45.3703 125.101 44.5318C124.264 43.6933 123.793 42.5567 123.793 41.3716C123.793 41.233 123.793 41.1004 123.793 40.9678C124.071 38.1892 128.26 38.4785 128.26 41.2691Z" fill="#EDEEEF"/>
<path d="M128.26 45.8438C127.075 45.8422 125.939 45.3703 125.101 44.5318C124.264 43.6932 123.793 42.5566 123.793 41.3716" stroke="black" stroke-width="2" stroke-miterlimit="10"/>
<path d="M146.462 50.9367C145.263 50.9367 144.113 50.4604 143.265 49.6127C142.418 48.7649 141.941 47.6151 141.941 46.4163" stroke="#FF6498" stroke-width="2" stroke-miterlimit="10"/>
<path d="M158.137 60.3271L126.162 68.1806" stroke="black" stroke-width="2" stroke-miterlimit="10"/>
<path d="M149.349 47.7002L146.462 48.4114" stroke="black" stroke-width="2" stroke-miterlimit="10" stroke-linecap="round"/>
<path d="M128.26 39.6177C128.26 39.6177 132.587 35.8507 133.118 31.8606C133.118 31.8606 149.09 32.2343 150.597 27.5632C151.838 28.2193 153.221 28.5622 154.626 28.5622C156.03 28.5622 157.413 28.2193 158.655 27.5632" stroke="black" stroke-width="2" stroke-miterlimit="10"/>
<path d="M158.137 32.7648C158.137 32.7648 164.387 27.1354 161.675 20.3065C158.962 13.4777 149.355 14.3818 149.355 14.3818C149.355 14.3818 141.947 10.3616 135.058 15.985C135.058 15.985 122.1 14.882 120.497 26.7376C120.497 26.7376 109.744 38.3882 126.168 52.5521" stroke="black" stroke-width="2" stroke-miterlimit="10"/>
<path d="M190.382 114.397V184.217L91.4937 208.525V130.773C91.4944 117.376 95.9866 104.366 104.252 93.8218C112.518 83.2781 124.08 75.8098 137.09 72.6108C143.427 71.0536 150.035 70.9578 156.415 72.3307C162.794 73.7036 168.778 76.5092 173.914 80.5353C179.05 84.5614 183.203 89.7026 186.059 95.5701C188.915 101.438 190.4 107.878 190.4 114.403L190.382 114.397Z" fill="#C2E6DA"/>
<path d="M124.065 491.327L130.99 478.905L106.207 182.734" fill="white"/>
<path d="M124.065 491.327L130.99 478.905L106.207 182.734" stroke="#223A5F" stroke-width="2" stroke-miterlimit="10"/>
<path d="M167.581 76.4138C167.581 76.4138 199.785 91.1202 215.455 151.802C231.126 212.484 165.225 243.416 165.225 243.416L146.462 221.718L176.881 170.366L155.949 139.941" fill="white"/>
<path d="M167.581 76.4138C167.581 76.4138 199.785 91.1202 215.455 151.802C231.126 212.484 165.225 243.416 165.225 243.416L146.462 221.718L176.881 170.366L155.949 139.941" stroke="#223A5F" stroke-width="2" stroke-miterlimit="10"/>
<path d="M165.225 243.416L139.808 214.015L165.225 243.416Z" fill="white"/>
<path d="M165.225 243.416L139.808 214.015" stroke="#223A5F" stroke-width="2" stroke-miterlimit="10"/>
<path d="M102.475 96.1831C102.475 96.1831 83.0558 128.489 77.3299 167.473C77.3299 167.473 65.5769 133.317 51.5154 124.879C37.4539 116.441 34.6392 119.653 34.6392 120.859C34.6392 122.064 44.2827 131.828 44.2827 131.828C44.2827 131.828 37.8517 144.16 46.2898 148.982C46.2898 148.982 33.2589 241.162 91.4939 228.71" fill="white"/>
<path d="M102.475 96.1831C102.475 96.1831 83.0558 128.489 77.3299 167.473C77.3299 167.473 65.5769 133.317 51.5154 124.879C37.4539 116.441 34.6392 119.653 34.6392 120.859C34.6392 122.064 44.2827 131.828 44.2827 131.828C44.2827 131.828 37.8517 144.16 46.2898 148.982C46.2898 148.982 33.2589 241.162 91.4939 228.71" stroke="#223A5F" stroke-width="2" stroke-miterlimit="10"/>
</g>
</svg>
