<svg width="594" height="798" viewBox="0 0 594 798" fill="none" xmlns="http://www.w3.org/2000/svg">
<path d="M244.77 287.278L162.72 292.538L257.35 460.538L186.35 656.538L277.43 714.538L276.55 685.538C276.55 685.538 338.35 618.538 385.35 467.538C432.35 316.538 244.77 287.278 244.77 287.278V287.278Z" fill="white"/>
<path d="M314.02 440.538L258.02 430.538L243.89 436.628L257.35 460.538L242.72 500.918C242.72 500.918 302.58 525.248 336.18 591.308C338.947 585.761 341.75 579.948 344.59 573.868C335.54 524.638 314.02 440.538 314.02 440.538Z" fill="#3C8870"/>
<path d="M575.28 259.428H314.18L332.09 102.788H593.19L575.28 259.428Z" fill="white" fill-opacity="0.85"/>
<path d="M564.91 246.068H303.82L321.72 89.4277H582.82L564.91 246.068Z" stroke="black" stroke-width="2" stroke-miterlimit="10"/>
<path d="M452.23 305.448L459.02 246.068H417.26L410.47 305.448H452.23Z" fill="#3C8870"/>
<path d="M457.35 652.538C457.35 652.538 439.04 298.118 196.03 299.258L80.68 327.608C80.68 327.608 52 484.878 291.99 475.878L378.99 700.878L473.48 667.878L457.35 652.538Z" fill="white"/>
<path d="M457.35 652.538C457.35 652.538 439.04 298.118 196.03 299.258" stroke="black" stroke-width="2" stroke-miterlimit="10"/>
<path d="M80.68 327.608C80.68 327.608 52 484.878 291.99 475.878L378.99 700.878" stroke="black" stroke-width="2" stroke-miterlimit="10"/>
<path d="M189.25 38.9078V81.7278L136.2 94.7578V22.4978L189.25 9.46777V38.9078Z" fill="#EDEEEF"/>
<path d="M159.28 53.7177C160.064 53.7177 160.7 53.0819 160.7 52.2977C160.7 51.5134 160.064 50.8777 159.28 50.8777C158.496 50.8777 157.86 51.5134 157.86 52.2977C157.86 53.0819 158.496 53.7177 159.28 53.7177Z" fill="black"/>
<path d="M181.07 53.7177C181.854 53.7177 182.49 53.0819 182.49 52.2977C182.49 51.5134 181.854 50.8777 181.07 50.8777C180.286 50.8777 179.65 51.5134 179.65 52.2977C179.65 53.0819 180.286 53.7177 181.07 53.7177Z" fill="black"/>
<path d="M174.68 60.7577V38.9077H185.63" stroke="black" stroke-width="2" stroke-miterlimit="10"/>
<path d="M156.61 38.9077H167.56" stroke="black" stroke-width="2" stroke-miterlimit="10"/>
<path d="M139.7 50.1078V57.6978C137.732 57.6978 135.845 56.916 134.453 55.5245C133.062 54.133 132.28 52.2457 132.28 50.2778C132.28 50.0478 132.28 49.8278 132.28 49.6078C132.73 44.9978 139.7 45.4778 139.7 50.1078V50.1078Z" fill="#EDEEEF"/>
<path d="M139.7 57.6978C137.732 57.6978 135.845 56.9161 134.453 55.5246C133.062 54.133 132.28 52.2457 132.28 50.2778" stroke="black" stroke-width="2" stroke-miterlimit="10"/>
<path d="M169.89 66.1478C168.904 66.1491 167.928 65.9561 167.017 65.5798C166.106 65.2035 165.278 64.6512 164.58 63.9547C163.883 63.2581 163.33 62.4309 162.952 61.5203C162.574 60.6097 162.38 59.6336 162.38 58.6478" stroke="#FF6498" stroke-width="2" stroke-miterlimit="10"/>
<path d="M189.25 81.7278L136.2 94.7578" stroke="black" stroke-width="2" stroke-miterlimit="10"/>
<path d="M174.68 60.7778L169.89 61.9578" stroke="black" stroke-width="2" stroke-miterlimit="10" stroke-linecap="round"/>
<path d="M244.77 171.438V287.278L80.6802 327.608V198.608C80.6802 176.375 88.1353 154.785 101.853 137.289C115.571 119.793 134.76 107.402 156.35 102.098C166.864 99.5159 177.827 99.3584 188.41 101.637C198.994 103.916 208.921 108.571 217.44 115.251C225.96 121.93 232.849 130.46 237.588 140.194C242.326 149.928 244.789 160.612 244.79 171.438H244.77Z" fill="#C2E5DA"/>
<path d="M139.7 46.3878C143.768 41.3923 146.665 35.5493 148.18 29.2878C148.18 29.2878 179.65 39.6578 192.55 22.2878C198.4 14.4078 195.68 6.72778 192.94 2.18778C192.736 1.8336 192.444 1.53815 192.093 1.33011C191.741 1.12207 191.341 1.00851 190.933 1.00046C190.524 0.992409 190.12 1.09014 189.761 1.28417C189.401 1.47819 189.098 1.7619 188.88 2.10778C187.6 4.33778 184.6 6.17778 177.55 3.53778C165.69 -0.912217 140.99 0.537783 137.05 15.5378C137.05 15.5378 119.55 20.4078 134.59 46.5978" stroke="black" stroke-width="2" stroke-miterlimit="10"/>
<path d="M229.3 305.448H586.59" stroke="black" stroke-width="2" stroke-miterlimit="10"/>
<path d="M119.99 119.428C119.99 119.428 52.3499 174.978 35.3499 264.758C18.3499 354.538 153.15 332.958 217.35 306.538" stroke="black" stroke-width="2" stroke-miterlimit="10"/>
<path d="M106.85 259.428C106.85 259.428 259.35 232.428 269.85 299.248" stroke="black" stroke-width="2" stroke-miterlimit="10"/>
<path d="M222.29 119.428C222.29 119.428 270.15 168.818 282.77 259.428C282.77 259.428 331.31 261.098 333.25 299.248" stroke="black" stroke-width="2" stroke-miterlimit="10"/>
<path d="M91.75 148.698C91.75 148.698 70 103.538 52 142.538C34 181.538 -44.65 438.538 38.35 481.538C121.35 524.538 242.72 500.918 242.72 500.918" stroke="black" stroke-width="2" stroke-miterlimit="10"/>
<path d="M151 507.388V796.818H52" stroke="black" stroke-width="2" stroke-miterlimit="10"/>
</svg>
