<svg width="285" height="301" viewBox="0 0 285 301" fill="none" xmlns="http://www.w3.org/2000/svg">
<path d="M0.154053 0H87.4797V87.3257H0.154053V0Z" fill="#C2E6DA"/>
<path d="M98.4573 0H185.783V87.3257H98.4573V0Z" fill="#C2E6DA"/>
<path d="M196.754 0H284.08V87.3257H196.754V0Z" fill="#C2E6DA"/>
<path d="M0.154053 106.677H87.4797V194.003H0.154053V106.677Z" fill="#C2E5DA"/>
<path d="M98.4573 106.677H185.783V194.003H98.4573V106.677Z" fill="#C2E6DA"/>
<path d="M196.754 106.677H284.08V194.003H196.754V106.677Z" fill="#C2E6DA"/>
<path d="M0.154053 213.354H87.4797V300.68H0.154053V213.354Z" fill="#C2E6DA"/>
<path d="M98.4573 213.354H185.783V300.68H98.4573V213.354Z" fill="#C2E6DA"/>
<path d="M196.754 213.354H284.08V300.68H196.754V213.354Z" fill="#C2E6DA"/>
<path d="M16.5859 72L35.2871 45.291L17.3672 20.1445H34.1152L43.2949 34.4023L52.9629 20.1445H69.0762L51.498 44.7051L70.6875 72H53.8418L43.2949 55.9355L32.6504 72H16.5859Z" fill="#223A5F"/>
<path d="M114.586 178L133.287 151.291L115.367 126.145H132.115L141.295 140.402L150.963 126.145H167.076L149.498 150.705L168.688 178H151.842L141.295 161.936L130.65 178H114.586Z" fill="#223A5F"/>
<path d="M213.586 285L232.287 258.291L214.367 233.145H231.115L240.295 247.402L249.963 233.145H266.076L248.498 257.705L267.688 285H250.842L240.295 268.936L229.65 285H213.586Z" fill="#223A5F"/>
<path d="M13.4766 256.719C13.4766 250.885 14.349 245.99 16.0938 242.031C17.3958 239.115 19.1667 236.497 21.4062 234.18C23.6719 231.862 26.1458 230.143 28.8281 229.023C32.3958 227.513 36.5104 226.758 41.1719 226.758C49.6094 226.758 56.3542 229.375 61.4062 234.609C66.4844 239.844 69.0234 247.122 69.0234 256.445C69.0234 265.69 66.5104 272.93 61.4844 278.164C56.4583 283.372 49.7396 285.977 41.3281 285.977C32.8125 285.977 26.0417 283.385 21.0156 278.203C15.9896 272.995 13.4766 265.833 13.4766 256.719ZM25.3906 256.328C25.3906 262.812 26.888 267.734 29.8828 271.094C32.8776 274.427 36.6797 276.094 41.2891 276.094C45.8984 276.094 49.6745 274.44 52.6172 271.133C55.5859 267.799 57.0703 262.812 57.0703 256.172C57.0703 249.609 55.625 244.714 52.7344 241.484C49.8698 238.255 46.0547 236.641 41.2891 236.641C36.5234 236.641 32.6823 238.281 29.7656 241.562C26.849 244.818 25.3906 249.74 25.3906 256.328Z" fill="#5EB398"/>
<path d="M113.477 43.2358C113.477 37.4025 114.349 32.5067 116.094 28.5483C117.396 25.6317 119.167 23.0145 121.406 20.6968C123.672 18.3791 126.146 16.6603 128.828 15.5405C132.396 14.0301 136.51 13.2749 141.172 13.2749C149.609 13.2749 156.354 15.8921 161.406 21.1265C166.484 26.3608 169.023 33.6395 169.023 42.9624C169.023 52.2072 166.51 59.4468 161.484 64.6812C156.458 69.8895 149.74 72.4937 141.328 72.4937C132.812 72.4937 126.042 69.9025 121.016 64.7202C115.99 59.5119 113.477 52.3504 113.477 43.2358ZM125.391 42.8452C125.391 49.3296 126.888 54.2515 129.883 57.6108C132.878 60.9442 136.68 62.6108 141.289 62.6108C145.898 62.6108 149.674 60.9572 152.617 57.6499C155.586 54.3166 157.07 49.3296 157.07 42.689C157.07 36.1265 155.625 31.2306 152.734 28.0015C149.87 24.7723 146.055 23.1577 141.289 23.1577C136.523 23.1577 132.682 24.7983 129.766 28.0796C126.849 31.3348 125.391 36.2567 125.391 42.8452Z" fill="#5EB398"/>
<line x1="18.0264" y1="9.49522" x2="256.199" y2="272.372" stroke="#5EB398" stroke-width="7"/>
</svg>
