<svg width="57" height="55" viewBox="0 0 57 55" fill="none" xmlns="http://www.w3.org/2000/svg">
<path d="M11.3975 5.42254V0H5.20036C1.17219 0 0.42336 3.61502 0.552468 5.42254V17.4296C0.552468 25.1761 11.1393 32.0188 16.4327 34.4718V44.1549C16.4327 51.5915 23.6628 54.4836 27.2778 55H40.4468C48.5032 55 50.259 47.2535 50.1299 43.3803H44.3201V45.7042C44.3201 47.2535 41.7379 48.9319 40.4468 49.5775H27.2778C23.5595 49.5775 22.6299 45.9624 22.6299 44.1549V34.4718C27.6652 33.6972 36.5736 25.5634 39.4316 17.4296C39.4316 14.331 39.2849 9.4507 39.2849 5.42254C39.2849 1.39437 36.7027 0.129108 35.4116 0H28.0525V5.42254H33.475V17.4296C33.475 20.1408 26.8905 28.662 18.3694 27.8873C11.5525 27.2676 7.26608 20.6573 5.975 17.4296V5.42254H11.3975Z" fill="#5EB398"/>
<circle cx="47.4192" cy="35.2463" r="8.90845" fill="#5EB398"/>
</svg>
