<svg width="110" height="110" viewBox="0 0 110 110" fill="none" xmlns="http://www.w3.org/2000/svg">
<path d="M103.95 75.6556C96.4333 75.6556 89.1611 74.4333 82.3778 72.2333C80.2389 71.5 77.8556 72.05 76.2056 73.7L66.6111 85.7389C49.3167 77.4889 33.1222 61.9056 24.5056 44L36.4222 33.8556C38.0722 32.1444 38.5611 29.7611 37.8889 27.6222C35.6278 20.8389 34.4667 13.5667 34.4667 6.05C34.4667 2.75 31.7167 0 28.4167 0H7.27222C3.97222 0 0 1.46667 0 6.05C0 62.8222 47.2389 110 103.95 110C108.289 110 110 106.15 110 102.789V81.7056C110 78.4056 107.25 75.6556 103.95 75.6556Z" fill="black"/>
</svg>
