<svg width="108" height="107" viewBox="0 0 108 107" fill="none" xmlns="http://www.w3.org/2000/svg">
<path d="M76.8127 67.1667H72.0068L70.3035 65.5242C76.2652 58.5892 79.8543 49.5858 79.8543 39.7917C79.8543 17.9525 62.1518 0.25 40.3127 0.25C18.4735 0.25 0.770996 17.9525 0.770996 39.7917C0.770996 61.6308 18.4735 79.3333 40.3127 79.3333C50.1068 79.3333 59.1102 75.7442 66.0452 69.7825L67.6877 71.4858V76.2917L98.1043 106.648L107.168 97.5833L76.8127 67.1667V67.1667ZM40.3127 67.1667C25.1652 67.1667 12.9377 54.9392 12.9377 39.7917C12.9377 24.6442 25.1652 12.4167 40.3127 12.4167C55.4602 12.4167 67.6877 24.6442 67.6877 39.7917C67.6877 54.9392 55.4602 67.1667 40.3127 67.1667Z" fill="black"/>
</svg>
